<mxfile host="app.diagrams.net" agent="Mozilla/5.0 (Windows NT 10.0; Win64; x64) AppleWebKit/537.36 (KHTML, like Gecko) Chrome/138.0.0.0 Safari/537.36" version="28.0.7">
  <diagram name="AU eRequesting Task State Transition" id="EYuKPvNfPCEePWJ_p5GT">
    <mxGraphModel dx="1188" dy="1788" grid="1" gridSize="10" guides="1" tooltips="1" connect="1" arrows="1" fold="1" page="1" pageScale="1" pageWidth="827" pageHeight="1169" math="0" shadow="0">
      <root>
        <mxCell id="0" />
        <mxCell id="1" parent="0" />
        <mxCell id="hisHGRFoWCt1og063iCB-1" style="edgeStyle=orthogonalEdgeStyle;rounded=0;orthogonalLoop=1;jettySize=auto;html=1;entryX=0;entryY=0.5;entryDx=0;entryDy=0;exitX=1;exitY=0.5;exitDx=0;exitDy=0;" edge="1" parent="1" source="hisHGRFoWCt1og063iCB-2" target="hisHGRFoWCt1og063iCB-8">
          <mxGeometry relative="1" as="geometry" />
        </mxCell>
        <mxCell id="hisHGRFoWCt1og063iCB-2" value="" style="whiteSpace=wrap;html=1;dashed=1;" vertex="1" parent="1">
          <mxGeometry x="180" y="-1150" width="330" height="200" as="geometry" />
        </mxCell>
        <mxCell id="hisHGRFoWCt1og063iCB-3" style="edgeStyle=orthogonalEdgeStyle;rounded=0;html=1;entryX=0;entryY=0.25;jettySize=auto;orthogonalLoop=1;exitX=1;exitY=0.25;" edge="1" parent="1" source="hisHGRFoWCt1og063iCB-6" target="hisHGRFoWCt1og063iCB-24">
          <mxGeometry relative="1" as="geometry">
            <Array as="points" />
          </mxGeometry>
        </mxCell>
        <mxCell id="hisHGRFoWCt1og063iCB-4" style="edgeStyle=orthogonalEdgeStyle;rounded=0;html=1;entryX=0.5;entryY=0;jettySize=auto;orthogonalLoop=1;exitX=0.25;exitY=1;" edge="1" parent="1" source="hisHGRFoWCt1og063iCB-6" target="hisHGRFoWCt1og063iCB-20">
          <mxGeometry relative="1" as="geometry">
            <Array as="points">
              <mxPoint x="240" y="-830" />
              <mxPoint x="200" y="-830" />
            </Array>
          </mxGeometry>
        </mxCell>
        <mxCell id="hisHGRFoWCt1og063iCB-5" style="edgeStyle=orthogonalEdgeStyle;rounded=0;html=1;entryX=0.5;entryY=0;jettySize=auto;orthogonalLoop=1;exitX=0.75;exitY=1;" edge="1" parent="1" source="hisHGRFoWCt1og063iCB-6" target="hisHGRFoWCt1og063iCB-22">
          <mxGeometry relative="1" as="geometry">
            <Array as="points">
              <mxPoint x="300" y="-830.2" />
              <mxPoint x="340" y="-830.2" />
            </Array>
          </mxGeometry>
        </mxCell>
        <mxCell id="hisHGRFoWCt1og063iCB-6" value="in-progress" style="rounded=1;whiteSpace=wrap;html=1;fillColor=#dae8fc;strokeColor=#6c8ebf;" vertex="1" parent="1">
          <mxGeometry x="210" y="-930" width="120" height="60" as="geometry" />
        </mxCell>
        <mxCell id="hisHGRFoWCt1og063iCB-7" style="edgeStyle=orthogonalEdgeStyle;rounded=0;orthogonalLoop=1;jettySize=auto;html=1;entryX=1;entryY=0.5;entryDx=0;entryDy=0;exitX=0.5;exitY=1;exitDx=0;exitDy=0;" edge="1" parent="1" source="hisHGRFoWCt1og063iCB-8" target="hisHGRFoWCt1og063iCB-27">
          <mxGeometry relative="1" as="geometry">
            <Array as="points">
              <mxPoint x="650" y="-655" />
            </Array>
          </mxGeometry>
        </mxCell>
        <mxCell id="hisHGRFoWCt1og063iCB-8" value="cancelled" style="rounded=1;whiteSpace=wrap;html=1;fillColor=#f8cecc;strokeColor=#b85450;" vertex="1" parent="1">
          <mxGeometry x="590" y="-1080" width="120" height="60" as="geometry" />
        </mxCell>
        <mxCell id="hisHGRFoWCt1og063iCB-9" style="edgeStyle=orthogonalEdgeStyle;rounded=0;html=1;jettySize=auto;orthogonalLoop=1;entryX=1;entryY=0.5;entryDx=0;entryDy=0;" edge="1" parent="1" source="hisHGRFoWCt1og063iCB-10" target="hisHGRFoWCt1og063iCB-27">
          <mxGeometry relative="1" as="geometry">
            <mxPoint x="360" y="-650" as="targetPoint" />
            <Array as="points">
              <mxPoint x="550" y="-1006" />
              <mxPoint x="550" y="-655" />
            </Array>
          </mxGeometry>
        </mxCell>
        <mxCell id="hisHGRFoWCt1og063iCB-10" value="rejected" style="rounded=1;whiteSpace=wrap;html=1;fillColor=#f8cecc;strokeColor=#b85450;" vertex="1" parent="1">
          <mxGeometry x="368" y="-1036" width="120" height="60" as="geometry" />
        </mxCell>
        <mxCell id="hisHGRFoWCt1og063iCB-11" value="accepted" style="rounded=1;whiteSpace=wrap;html=1;fillColor=#dae8fc;strokeColor=#6c8ebf;" vertex="1" parent="1">
          <mxGeometry x="210" y="-1036" width="120" height="60" as="geometry" />
        </mxCell>
        <mxCell id="hisHGRFoWCt1og063iCB-12" style="rounded=0;html=1;exitX=0.25;exitY=1;entryX=0.75;entryY=0;jettySize=auto;orthogonalLoop=1;" edge="1" parent="1" source="hisHGRFoWCt1og063iCB-14" target="hisHGRFoWCt1og063iCB-11">
          <mxGeometry relative="1" as="geometry" />
        </mxCell>
        <mxCell id="hisHGRFoWCt1og063iCB-13" style="edgeStyle=orthogonalEdgeStyle;rounded=0;html=1;exitX=0.5;exitY=1;entryX=0.5;entryY=0;jettySize=auto;orthogonalLoop=1;" edge="1" parent="1" source="hisHGRFoWCt1og063iCB-14" target="hisHGRFoWCt1og063iCB-10">
          <mxGeometry relative="1" as="geometry" />
        </mxCell>
        <mxCell id="hisHGRFoWCt1og063iCB-14" value="received" style="rounded=1;whiteSpace=wrap;html=1;fillColor=#dae8fc;strokeColor=#6c8ebf;" vertex="1" parent="1">
          <mxGeometry x="368" y="-1136" width="120" height="60" as="geometry" />
        </mxCell>
        <mxCell id="hisHGRFoWCt1og063iCB-15" style="edgeStyle=orthogonalEdgeStyle;rounded=0;html=1;entryX=0;entryY=0.5;jettySize=auto;orthogonalLoop=1;" edge="1" parent="1" source="hisHGRFoWCt1og063iCB-18" target="hisHGRFoWCt1og063iCB-14">
          <mxGeometry relative="1" as="geometry" />
        </mxCell>
        <mxCell id="hisHGRFoWCt1og063iCB-16" style="edgeStyle=orthogonalEdgeStyle;rounded=0;html=1;entryX=0.5;entryY=0;jettySize=auto;orthogonalLoop=1;" edge="1" parent="1" source="hisHGRFoWCt1og063iCB-18" target="hisHGRFoWCt1og063iCB-11">
          <mxGeometry relative="1" as="geometry" />
        </mxCell>
        <mxCell id="hisHGRFoWCt1og063iCB-17" style="rounded=0;html=1;exitX=0.75;exitY=1;entryX=0.25;entryY=0;jettySize=auto;orthogonalLoop=1;" edge="1" parent="1" source="hisHGRFoWCt1og063iCB-18" target="hisHGRFoWCt1og063iCB-10">
          <mxGeometry relative="1" as="geometry" />
        </mxCell>
        <mxCell id="hisHGRFoWCt1og063iCB-18" value="requested" style="rounded=1;whiteSpace=wrap;html=1;fillColor=#dae8fc;strokeColor=#6c8ebf;" vertex="1" parent="1">
          <mxGeometry x="210" y="-1136" width="120" height="60" as="geometry" />
        </mxCell>
        <mxCell id="hisHGRFoWCt1og063iCB-19" style="edgeStyle=orthogonalEdgeStyle;rounded=0;html=1;entryX=0.5;entryY=0;jettySize=auto;orthogonalLoop=1;exitX=0.5;exitY=1;exitDx=0;exitDy=0;entryDx=0;entryDy=0;" edge="1" parent="1" source="hisHGRFoWCt1og063iCB-20" target="hisHGRFoWCt1og063iCB-27">
          <mxGeometry relative="1" as="geometry">
            <Array as="points">
              <mxPoint x="200" y="-705" />
              <mxPoint x="270" y="-705" />
            </Array>
            <mxPoint x="264" y="-670.2" as="targetPoint" />
          </mxGeometry>
        </mxCell>
        <mxCell id="hisHGRFoWCt1og063iCB-20" value="completed" style="rounded=1;whiteSpace=wrap;html=1;fillColor=#d5e8d4;strokeColor=#82b366;" vertex="1" parent="1">
          <mxGeometry x="140" y="-799.8" width="120" height="60" as="geometry" />
        </mxCell>
        <mxCell id="hisHGRFoWCt1og063iCB-21" style="edgeStyle=orthogonalEdgeStyle;rounded=0;html=1;entryX=0.5;entryY=0;jettySize=auto;orthogonalLoop=1;exitX=0.5;exitY=1;entryDx=0;entryDy=0;" edge="1" parent="1" source="hisHGRFoWCt1og063iCB-22" target="hisHGRFoWCt1og063iCB-27">
          <mxGeometry relative="1" as="geometry">
            <Array as="points">
              <mxPoint x="340" y="-705" />
              <mxPoint x="270" y="-705" />
            </Array>
            <mxPoint x="264" y="-670.2" as="targetPoint" />
          </mxGeometry>
        </mxCell>
        <mxCell id="hisHGRFoWCt1og063iCB-22" value="failed" style="rounded=1;whiteSpace=wrap;html=1;fillColor=#f8cecc;strokeColor=#b85450;" vertex="1" parent="1">
          <mxGeometry x="280" y="-799.8" width="120" height="60" as="geometry" />
        </mxCell>
        <mxCell id="hisHGRFoWCt1og063iCB-23" style="edgeStyle=orthogonalEdgeStyle;rounded=0;html=1;entryX=1;entryY=0.75;jettySize=auto;orthogonalLoop=1;exitX=0;exitY=0.75;" edge="1" parent="1" source="hisHGRFoWCt1og063iCB-24" target="hisHGRFoWCt1og063iCB-6">
          <mxGeometry relative="1" as="geometry">
            <Array as="points" />
          </mxGeometry>
        </mxCell>
        <mxCell id="hisHGRFoWCt1og063iCB-24" value="on-hold" style="rounded=1;whiteSpace=wrap;html=1;fillColor=#fff2cc;strokeColor=#d6b656;" vertex="1" parent="1">
          <mxGeometry x="368" y="-930" width="120" height="60" as="geometry" />
        </mxCell>
        <mxCell id="hisHGRFoWCt1og063iCB-25" value="" style="ellipse;html=1;shape=startState;fillColor=#000000;strokeColor=#ff0000;" vertex="1" parent="1">
          <mxGeometry x="90" y="-1121" width="30" height="30" as="geometry" />
        </mxCell>
        <mxCell id="hisHGRFoWCt1og063iCB-26" value="" style="edgeStyle=orthogonalEdgeStyle;html=1;verticalAlign=bottom;endArrow=open;endSize=8;strokeColor=#ff0000;rounded=0;entryX=0;entryY=0.5;entryDx=0;entryDy=0;" edge="1" parent="1" source="hisHGRFoWCt1og063iCB-25" target="hisHGRFoWCt1og063iCB-18">
          <mxGeometry relative="1" as="geometry">
            <mxPoint x="25" y="-1100" as="targetPoint" />
          </mxGeometry>
        </mxCell>
        <mxCell id="hisHGRFoWCt1og063iCB-27" value="" style="ellipse;html=1;shape=endState;fillColor=#000000;strokeColor=#ff0000;" vertex="1" parent="1">
          <mxGeometry x="255" y="-670.2" width="30" height="30" as="geometry" />
        </mxCell>
        <mxCell id="hisHGRFoWCt1og063iCB-28" style="edgeStyle=orthogonalEdgeStyle;rounded=0;html=1;jettySize=auto;orthogonalLoop=1;entryX=0.5;entryY=0;entryDx=0;entryDy=0;" edge="1" parent="1" target="hisHGRFoWCt1og063iCB-6">
          <mxGeometry relative="1" as="geometry">
            <mxPoint x="269.5" y="-976" as="sourcePoint" />
            <mxPoint x="130" y="-950" as="targetPoint" />
          </mxGeometry>
        </mxCell>
      </root>
    </mxGraphModel>
  </diagram>
</mxfile>
